<?xml version="1.0" encoding="iso-8859-1"?>
<!-- Uploaded to: SVG Repo, www.svgrepo.com, Generator: SVG Repo Mixer Tools -->
<svg height="800px" width="800px" version="1.1" id="Layer_1" xmlns="http://www.w3.org/2000/svg" xmlns:xlink="http://www.w3.org/1999/xlink" 
	 viewBox="0 0 503.607 503.607" xml:space="preserve">
<path style="fill:#FFE100;" d="M325.666,67.148v41.967c0,5.036-3.357,8.393-6.715,8.393H167.869c-4.197,0-7.554-4.197-7.554-8.393
	V67.148h-31.056c-15.948,0-28.538,15.108-28.538,33.574v360.918c0,18.466,12.59,33.574,28.538,33.574h228.302
	c15.948,0,28.538-15.108,28.538-33.574V100.721c0-18.466-12.59-33.574-28.538-33.574H325.666z"/>
<path style="fill:#FFFFFF;" d="M100.721,461.639V100.721c0-18.466,12.59-33.574,28.538-33.574h-20.144
	c-18.466,0-33.574,15.108-33.574,33.574v360.918c0,18.466,15.108,33.574,33.574,33.574h20.144
	C113.311,495.213,100.721,480.105,100.721,461.639"/>
<path style="fill:#FFA800;" d="M377.705,67.148h-20.144c15.948,0,28.538,15.108,28.538,33.574v360.918
	c0,18.466-12.59,33.574-28.538,33.574h20.144c18.466,0,33.574-15.108,33.574-33.574V100.721
	C411.279,82.256,396.17,67.148,377.705,67.148"/>
<path style="fill:#FFE100;" d="M402.885,67.148h-20.144c15.948,0,28.538,15.108,28.538,33.574v360.918
	c0,18.466-12.59,33.574-28.538,33.574h20.144c18.466,0,33.574-15.108,33.574-33.574V100.721
	C436.459,82.256,421.351,67.148,402.885,67.148"/>
<path style="fill:#FFA800;" d="M285.377,41.967V25.18c0-9.233-7.554-16.787-16.787-16.787h-50.361
	c-9.233,0-16.787,7.554-16.787,16.787v16.787h-33.574c-5.036,0-8.393,3.357-8.393,8.393v58.754c0,5.036,4.197,8.393,8.393,8.393
	h151.082c5.036,0,8.393-4.197,8.393-8.393V50.361c0-5.036-3.357-8.393-8.393-8.393H285.377z"/>
<path style="fill:#FECC00;" d="M285.377,41.967V25.18c0-9.233-7.554-16.787-16.787-16.787h-50.361
	c-9.233,0-16.787,7.554-16.787,16.787v16.787h-33.574c-5.036,0-8.393,3.357-8.393,8.393v58.754c0,5.036,4.197,8.393,8.393,8.393
	H293.77c5.036,0,8.393-4.197,8.393-8.393V50.361c0-5.036-3.357-8.393-8.393-8.393H285.377z"/>
<path d="M377.705,503.607h-268.59c-23.502,0-41.967-18.466-41.967-41.967V235.016c0-5.036,3.357-8.393,8.393-8.393
	s8.393,3.357,8.393,8.393v226.623c0,14.269,10.911,25.18,25.18,25.18h268.59c14.269,0,25.18-10.911,25.18-25.18V100.721
	c0-14.269-10.911-25.18-25.18-25.18h-41.967v33.574c0,9.233-7.554,16.787-16.787,16.787H167.869
	c-9.233,0-16.787-7.554-16.787-16.787V75.541h-41.967c-14.269,0-25.18,10.911-25.18,25.18v67.148c0,5.036-3.357,8.393-8.393,8.393
	s-8.393-3.357-8.393-8.393v-67.148c0-23.502,18.466-41.967,41.967-41.967h50.361c5.036,0,8.393,3.357,8.393,8.393v41.967h151.082
	V67.148c0-5.036,3.357-8.393,8.393-8.393h50.361c23.502,0,41.967,18.466,41.967,41.967v360.918
	C419.672,485.141,401.207,503.607,377.705,503.607z"/>
<path d="M83.934,201.443c0-5.036-3.357-8.393-8.393-8.393s-8.393,3.357-8.393,8.393s3.357,8.393,8.393,8.393
	S83.934,206.479,83.934,201.443"/>
<path d="M167.869,125.902c-9.233,0-16.787-7.554-16.787-16.787V50.361c0-9.233,7.554-16.787,16.787-16.787h25.18V25.18
	c0-13.43,10.911-25.18,25.18-25.18h50.361c14.269,0,25.18,10.911,25.18,25.18v8.393h25.18c9.233,0,16.787,7.554,16.787,16.787
	v58.754c0,9.233-7.554,16.787-16.787,16.787H167.869z M167.869,50.361v58.754h151.082V50.361h-33.574
	c-5.036,0-8.393-3.357-8.393-8.393V25.18c0-4.197-3.357-8.393-8.393-8.393h-50.361c-5.036,0-8.393,3.357-8.393,8.393v16.787
	c0,5.036-3.357,8.393-8.393,8.393H167.869z"/>
<path d="M268.59,419.672H134.295c-5.036,0-8.393-3.357-8.393-8.393c0-5.036,3.357-8.393,8.393-8.393H268.59
	c5.036,0,8.393,3.357,8.393,8.393C276.984,416.315,273.626,419.672,268.59,419.672z"/>
<path d="M268.59,344.131H134.295c-5.036,0-8.393-3.357-8.393-8.393c0-5.036,3.357-8.393,8.393-8.393H268.59
	c5.036,0,8.393,3.357,8.393,8.393C276.984,340.774,273.626,344.131,268.59,344.131z"/>
<path d="M268.59,268.59H134.295c-5.036,0-8.393-3.357-8.393-8.393s3.357-8.393,8.393-8.393H268.59c5.036,0,8.393,3.357,8.393,8.393
	S273.626,268.59,268.59,268.59z"/>
<path d="M268.59,193.049H134.295c-5.036,0-8.393-3.357-8.393-8.393s3.357-8.393,8.393-8.393H268.59c5.036,0,8.393,3.357,8.393,8.393
	S273.626,193.049,268.59,193.049z"/>
<path d="M327.344,209.836c-2.518,0-4.197-0.839-5.875-2.518l-16.787-16.787c-3.357-3.357-3.357-8.393,0-11.751
	c3.357-3.357,8.393-3.357,11.751,0l16.787,16.787c3.357,3.357,3.357,8.393,0,11.751
	C331.541,208.997,329.862,209.836,327.344,209.836z"/>
<path d="M327.344,209.836c-1.679,0-3.357-0.839-5.036-1.679c-3.357-2.518-4.197-8.393-1.679-11.751l33.574-41.967
	c2.518-3.357,8.393-4.197,11.751-1.679c3.357,2.518,4.197,8.393,1.679,11.751l-33.574,41.967
	C332.38,208.997,329.862,209.836,327.344,209.836z"/>
<path d="M327.344,285.377c-2.518,0-4.197-0.839-5.875-2.518l-16.787-16.787c-3.357-3.357-3.357-8.393,0-11.751s8.393-3.357,11.751,0
	l16.787,16.787c3.357,3.357,3.357,8.393,0,11.751C331.541,284.538,329.862,285.377,327.344,285.377z"/>
<path d="M327.344,285.377c-1.679,0-3.357-0.839-5.036-1.679c-3.357-2.518-4.197-8.393-1.679-11.751l33.574-41.967
	c2.518-3.357,8.393-4.197,11.751-1.679c3.357,2.518,4.197,8.393,1.679,11.751l-33.574,41.967
	C332.38,284.538,329.862,285.377,327.344,285.377z"/>
<path d="M327.344,360.918c-2.518,0-4.197-0.839-5.875-2.518l-16.787-16.787c-3.357-3.357-3.357-8.393,0-11.751s8.393-3.357,11.751,0
	l16.787,16.787c3.357,3.357,3.357,8.393,0,11.751C331.541,360.079,329.862,360.918,327.344,360.918z"/>
<path d="M327.344,360.918c-1.679,0-3.357-0.839-5.036-1.679c-3.357-2.518-4.197-8.393-1.679-11.751l33.574-41.967
	c2.518-3.357,8.393-4.197,11.751-1.679c3.357,2.518,4.197,8.393,1.679,11.751l-33.574,41.967
	C332.38,360.079,329.862,360.918,327.344,360.918z"/>
<path d="M327.344,436.459c-2.518,0-4.197-0.839-5.875-2.518l-16.787-16.787c-3.357-3.357-3.357-8.393,0-11.751s8.393-3.357,11.751,0
	l16.787,16.787c3.357,3.357,3.357,8.393,0,11.751C331.541,435.62,329.862,436.459,327.344,436.459z"/>
<path d="M327.344,436.459c-1.679,0-3.357-0.839-5.036-1.679c-3.357-2.518-4.197-8.393-1.679-11.751l33.574-41.967
	c2.518-3.357,8.393-4.197,11.751-1.679c3.357,2.518,4.197,8.393,1.679,11.751l-33.574,41.967
	C332.38,435.62,329.862,436.459,327.344,436.459z"/>
</svg>